# xmcd
#
# Track frame offsets:
#	150
#	13552
#	26742
#	41052
#	52862
#	65467
#	80005
#	89777
#	100452
#	111790
#	122935
#	135895
#	147592
#	159547
#	171715
#	183375
#	194102
#	206742
#	217805
#	232520
#
# Disc length: 3266 seconds
#
# Revision: 5
# Processed by: cddbd v1.5.2PL0 Copyright (c) Steve Scherf et al.
# Submitted via: EZCDAudioConverter 2.0.3.1
#
DISCID=260cc014
DTITLE=Various Artist - Country Gold - cd 2
DYEAR=1994
DGENRE=Country
TTITLE0=Lyn Anderson - Rose garden
TTITLE1=Bobby Bare - Detroit city
TTITLE2=George Jones - It's a good year for the roses
TTITLE3=Skeeter Davis - The end of the world
TTITLE4=Johnny Cash - Folsom prison blues
TTITLE5=Loretta Lynn - Coal miner's daughter
TTITLE6=Merle Haggers - Mama tried
TTITLE7=Leroy van Dyke - Walk on by
TTITLE8=Dave Dudley - Six days on the road
TTITLE9=Ned Miller - Do what you do well
TTITLE10=Faron Young - It's four in the morning
TTITLE11=Donna Fargo - The happiest girl in the whole USA
TTITLE12=Jeannie C. Riley - Country girl
TTITLE13=Hoyt Axton - We could've been sweethearts
TTITLE14=Willie Nelson - End of understanding
TTITLE15=Charlie Rich - Unchained melody
TTITLE16=David Houston - My elusive dreams
TTITLE17=Don Gibson - Oh lonesome me
TTITLE18=Billy Jo Spears - Crazy
TTITLE19=Charley Pride - Crystal Chandelliers
EXTD=
EXTT0=
EXTT1=
EXTT2=
EXTT3=
EXTT4=
EXTT5=
EXTT6=
EXTT7=
EXTT8=
EXTT9=
EXTT10=
EXTT11=
EXTT12=
EXTT13=
EXTT14=
EXTT15=
EXTT16=
EXTT17=
EXTT18=
EXTT19=
PLAYORDER=
